HIERARCHY
ROOT Hips
{
  OFFSET 46.8093 98.8762 31.412
  CHANNELS 6 Xposition Yposition Zposition Zrotation Xrotation Yrotation
  JOINT spine
  {
    OFFSET 0 8.30104 0.477351
    CHANNELS 3 Zrotation Xrotation Yrotation
    JOINT spine1
    {
      OFFSET 0 10.4565 0
      CHANNELS 3 Zrotation Xrotation Yrotation
      JOINT spine2
      {
        OFFSET 0 10.0192 0
        CHANNELS 3 Zrotation Xrotation Yrotation
        JOINT Neck
        {
          OFFSET 0 25.7235 1.22641
          CHANNELS 3 Zrotation Xrotation Yrotation
          JOINT Head
          {
            OFFSET 0 7.77175 0
            CHANNELS 3 Zrotation Xrotation Yrotation
            End Site
            {
              OFFSET 0 18.812 -6.20394
            }
          }
        }
        JOINT RightShoulder
        {
          OFFSET -4.2188 10.82 -0.587439
          CHANNELS 3 Zrotation Xrotation Yrotation
          JOINT RightArm
          {
            OFFSET 0 14.1914 0
            CHANNELS 3 Zrotation Xrotation Yrotation
            JOINT RightArmRoll
            {
              OFFSET 0 7.16408 0
              CHANNELS 3 Zrotation Xrotation Yrotation
              JOINT RightForeArm
              {
                OFFSET 0 20.8665 0
                CHANNELS 3 Zrotation Xrotation Yrotation
                JOINT RightForeArmRoll
                {
                  OFFSET 0 8.03921 0
                  CHANNELS 3 Zrotation Xrotation Yrotation
                  JOINT RightHand
                  {
                    OFFSET 0 16.133 0
                    CHANNELS 3 Zrotation Xrotation Yrotation
                    End Site
                    {
                      OFFSET 0 0 0
                    }
                  }
                }
              }
            }
          }
        }
        JOINT LeftShoulder
        {
          OFFSET 4.2188 10.82 -0.587439
          CHANNELS 3 Zrotation Xrotation Yrotation
          JOINT LeftArm
          {
            OFFSET 0 14.1914 0
            CHANNELS 3 Zrotation Xrotation Yrotation
            JOINT LeftArmRoll
            {
              OFFSET 0 7.16408 0
              CHANNELS 3 Zrotation Xrotation Yrotation
              JOINT LeftForeArm
              {
                OFFSET 0 20.8665 0
                CHANNELS 3 Zrotation Xrotation Yrotation
                JOINT LeftForeArmRoll
                {
                  OFFSET 0 8.03921 0
                  CHANNELS 3 Zrotation Xrotation Yrotation
                  JOINT LeftHand
                  {
                    OFFSET 0 16.133 0
                    CHANNELS 3 Zrotation Xrotation Yrotation
                    End Site
                    {
                      OFFSET 0 0 0
                    }
                  }
                }
              }
            }
          }
        }
      }
    }
  }
  JOINT RightUpLeg
  {
    OFFSET -7.35773 -1.34921 -1.13182
    CHANNELS 3 Zrotation Xrotation Yrotation
    JOINT RightUpLegRoll
    {
      OFFSET 0 18.9168 0
      CHANNELS 3 Zrotation Xrotation Yrotation
      JOINT RightLeg
      {
        OFFSET 0 -23.4256 0
        CHANNELS 3 Zrotation Xrotation Yrotation
        JOINT RightLegRoll
        {
          OFFSET 0 23.5023 0
          CHANNELS 3 Zrotation Xrotation Yrotation
          JOINT RightFoot
          {
            OFFSET 0 19.5617 0
            CHANNELS 3 Zrotation Xrotation Yrotation
            JOINT RightToeBase
            {
              OFFSET 0 16.3526 0
              CHANNELS 3 Zrotation Xrotation Yrotation
              End Site
              {
                OFFSET 0.00693124 7.91944 -0.912836
              }
            }
          }
        }
      }
    }
  }
  JOINT LeftUpLeg
  {
    OFFSET 7.35773 -1.34921 -1.13182
    CHANNELS 3 Zrotation Xrotation Yrotation
    JOINT LeftUpLegRoll
    {
      OFFSET 0 18.9169 0
      CHANNELS 3 Zrotation Xrotation Yrotation
      JOINT LeftLeg
      {
        OFFSET 0 23.4255 0
        CHANNELS 3 Zrotation Xrotation Yrotation
        JOINT LeftLegRoll
        {
          OFFSET 0 23.7195 0
          CHANNELS 3 Zrotation Xrotation Yrotation
          JOINT LeftFoot
          {
            OFFSET 0 19.3444 0
            CHANNELS 3 Zrotation Xrotation Yrotation
            JOINT LeftToeBase
            {
              OFFSET 0 16.3526 0
              CHANNELS 3 Zrotation Xrotation Yrotation
              End Site
              {
                OFFSET -0.0310629 7.91944 -0.912837
              }
            }
          }
        }
      }
    }
  }
}
MOTION
Frames: 13
Frame Time: 0.00208333
46.8402 98.9075 31.5419 -0.211676 1.00795 -0.753959 -0.0300424 -2.73977 -0.0554446 -0.0582321 -1.47687 -0.105218 -0.0569653 0.168213 -0.104238 0.498576 22.5891 0.06698 0.152007 -0.647066 0.255873 39.4999 -11.2665 -7.28196 51.4881 33.313 51.5117 7.06225e-31 1.27222e-14 -3.18055e-15 -6.58791 1.46657 2.59827 -1.26522e-05 6.62255e-06 -3.00826 8.03027 -4.95142 0.69762 -44.2096 -9.7369 5.94971 -53.8292 29.3848 -47.6254 -3.56653e-06 -1.93395e-06 -1.38147e-05 6.68127 1.90786 -0.122167 9.77207e-06 1.07545e-05 3.00001 -8.03027 -4.9514 -0.697627 176.011 3.21105 0.439556 180 7.01555e-15 178.96 176.488 6.04254 179.736 -4.3683e-06 2.65562e-06 0.0663989 -18.9707 68.2745 19.7781 8.13649 25.2327 -3.48774 -174.157 3.87196 0.35565 4.54188e-06 -4.6773e-06 -1.11764 -3.30598 -11.0779 0.434525 2.43306e-06 -7.34586e-06 -0.166111 19.2512 68.5783 -20.0211 -8.13649 25.2327 3.48774 
46.8156 98.9008 31.5325 -0.21558 1.01499 -0.761256 -0.0288038 -2.74056 -0.055483 -0.0545295 -1.47851 -0.104265 -0.0532746 0.166566 -0.103347 0.466517 22.5662 0.0782416 0.178871 -0.623841 0.258846 39.477 -11.2746 -7.28956 51.4938 33.3521 51.5334 -3.18055e-15 -3.18055e-15 6.36111e-15 -6.61126 1.41955 2.5997 -1.26522e-05 6.62255e-06 -3.00826 8.03027 -4.95142 0.69762 -44.2165 -9.73338 5.9468 -53.8179 29.3756 -47.6236 -3.56653e-06 -1.93395e-06 -1.38147e-05 6.67131 1.90081 -0.12087 9.77207e-06 1.07545e-05 3.00001 -8.03027 -4.9514 -0.697627 176.017 3.21324 0.435454 180 7.01555e-15 178.96 176.488 6.03108 179.736 -4.3683e-06 2.65562e-06 0.0664245 -18.9653 68.2685 19.7722 8.13649 25.2327 -3.48774 -174.15 3.90335 0.352929 4.54188e-06 -4.6773e-06 -1.11764 -3.30392 -11.1231 0.434121 2.43306e-06 -7.34586e-06 -0.166917 19.2714 68.6011 -20.0414 -8.13649 25.2327 3.48774 
46.8334 98.9336 31.5496 -0.21991 1.02244 -0.769098 -0.0274443 -2.74129 -0.055463 -0.0505342 -1.48006 -0.103139 -0.0492932 0.165021 -0.102288 0.432435 22.5396 0.0902699 0.207481 -0.597192 0.262058 39.4526 -11.2841 -7.29847 51.4988 33.3957 51.5577 -6.36111e-15 1.43125e-14 6.36111e-15 -6.63689 1.36695 2.60119 -1.26522e-05 6.62255e-06 -3.00826 8.03027 -4.95142 0.69762 -44.2231 -9.72982 5.94385 -53.8061 29.3667 -47.6218 -3.56653e-06 -1.93395e-06 -1.38147e-05 6.66051 1.89223 -0.119365 9.77207e-06 1.07545e-05 3.00001 -8.03027 -4.9514 -0.697627 176.026 3.21431 0.428073 180 7.01555e-15 178.96 176.491 6.01642 179.736 -4.3683e-06 2.65562e-06 0.0664503 -18.9595 68.2621 19.7659 8.13649 25.2327 -3.48774 -174.142 3.93665 0.349645 4.54188e-06 -4.6773e-06 -1.11764 -3.30193 -11.1712 0.433631 2.43306e-06 -7.34586e-06 -0.16775 19.2928 68.625 -20.0629 -8.13649 25.2327 3.48774 
46.8284 98.9261 31.5482 -0.224559 1.03021 -0.777358 -0.0259951 -2.74198 -0.0553947 -0.0463391 -1.48152 -0.101889 -0.0451134 0.163563 -0.101108 0.397003 22.5103 0.102851 0.237247 -0.568032 0.26547 39.4272 -11.2947 -7.30837 51.5031 33.4426 51.584 -9.54166e-15 2.8625e-14 9.54166e-15 -6.6642 1.31023 2.60271 -1.26522e-05 6.62255e-06 -3.00826 8.03027 -4.95142 0.69762 -44.2295 -9.72631 5.94094 -53.7937 29.3579 -47.62 -3.56653e-06 -1.93395e-06 -1.38147e-05 6.64913 1.88244 -0.117699 9.77207e-06 1.07545e-05 3.00001 -8.03027 -4.9514 -0.697627 176.036 3.21449 0.418058 180 7.01555e-15 178.961 176.497 5.99928 179.735 -4.3683e-06 2.65562e-06 0.0664765 -18.9535 68.2555 19.7593 8.13649 25.2327 -3.48774 -174.133 3.97105 0.34587 4.54188e-06 -4.6773e-06 -1.11764 -3.30007 -11.2208 0.43307 2.43306e-06 -7.34586e-06 -0.168593 19.3148 68.6496 -20.085 -8.13649 25.2327 3.48774 
46.8149 98.9012 31.537 -0.229421 1.03816 -0.785912 -0.0244879 -2.74264 -0.0552885 -0.0420369 -1.4829 -0.100564 -0.0408276 0.162175 -0.0998556 0.360896 22.4792 0.115773 0.267579 -0.537274 0.269042 39.4013 -11.306 -7.3189 51.5069 33.4918 51.6116 1.05934e-30 6.36111e-15 -9.54166e-15 -6.69259 1.25085 2.60425 -1.26522e-05 6.62255e-06 -3.00826 8.03027 -4.95142 0.69762 -44.2356 -9.72295 5.93815 -53.781 29.3494 -47.6184 -3.56653e-06 -1.93395e-06 -1.38147e-05 6.63742 1.87174 -0.115916 9.77207e-06 1.07545e-05 3.00001 -8.03027 -4.9514 -0.697627 176.047 3.21402 0.406049 180 7.01555e-15 178.961 176.504 5.98042 179.734 -4.3683e-06 2.65562e-06 0.0665031 -18.9474 68.2488 19.7525 8.13649 25.2327 -3.48774 -174.124 4.00571 0.341676 4.54188e-06 -4.6773e-06 -1.11764 -3.29841 -11.2708 0.432456 2.43306e-06 -7.34586e-06 -0.169426 19.3367 68.6741 -20.1071 -8.13649 25.2327 3.48774 
46.8056 98.9126 31.5402 -0.234389 1.04619 -0.794634 -0.0229539 -2.74328 -0.0551545 -0.0377207 -1.48423 -0.0992141 -0.0365281 0.160844 -0.0985778 0.324783 22.4472 0.128821 0.297888 -0.50583 0.272735 39.3755 -11.3177 -7.32974 51.5101 33.5421 51.64 1.76556e-30 1.59028e-14 -6.36111e-15 -6.72144 1.19026 2.6058 -1.26522e-05 6.62255e-06 -3.00826 8.03027 -4.95142 0.69762 -44.2413 -9.71985 5.93557 -53.7682 29.3412 -47.6171 -3.56653e-06 -1.93395e-06 -1.38147e-05 6.62563 1.86044 -0.114061 9.77207e-06 1.07545e-05 3.00001 -8.03027 -4.9514 -0.697627 176.06 3.21315 0.392691 180 7.01555e-15 178.961 176.514 5.96054 179.733 -4.3683e-06 2.65562e-06 0.0665301 -18.9413 68.242 19.7457 8.13649 25.2327 -3.48774 -174.114 4.03981 0.337136 4.54188e-06 -4.6773e-06 -1.11765 -3.29701 -11.3198 0.431802 2.43306e-06 -7.34586e-06 -0.170229 19.3581 68.6979 -20.1286 -8.13649 25.2327 3.48774 
46.8129 98.8945 31.5277 -0.239355 1.05417 -0.8034 -0.0214247 -2.74391 -0.0550029 -0.0334833 -1.48552 -0.0978877 -0.032307 0.159555 -0.0973224 0.289337 22.4154 0.141784 0.327584 -0.474611 0.27651 39.3501 -11.3293 -7.34055 51.5128 33.5923 51.6685 1.85384e-30 1.11319e-14 -9.54166e-15 -6.75017 1.12995 2.60734 -1.26522e-05 6.62255e-06 -3.00826 8.03027 -4.95142 0.69762 -44.2465 -9.71711 5.93327 -53.7554 29.3334 -47.6162 -3.56653e-06 -1.93395e-06 -1.38147e-05 6.61402 1.84887 -0.112179 9.77207e-06 1.07545e-05 3.00001 -8.03027 -4.9514 -0.697627 176.072 3.21211 0.378626 180 7.01556e-15 178.961 176.523 5.94044 179.732 -4.3683e-06 2.65562e-06 0.0665574 -18.9354 68.2355 19.7391 8.13649 25.2327 -3.48774 -174.105 4.07254 0.332321 4.54188e-06 -4.6773e-06 -1.11765 -3.29595 -11.3665 0.431126 2.43306e-06 -7.34586e-06 -0.170985 19.3784 68.7204 -20.149 -8.13649 25.2327 3.48774 
46.8068 98.899 31.5303 -0.244214 1.06198 -0.812085 -0.0199316 -2.74454 -0.0548438 -0.0294175 -1.48679 -0.0966341 -0.0282567 0.158292 -0.096137 0.255226 22.3846 0.154451 0.356079 -0.444531 0.280327 39.3258 -11.3405 -7.35099 51.5152 33.6414 51.6964 -3.18055e-15 3.18055e-15 9.54166e-15 -6.77816 1.07136 2.60886 -1.26522e-05 6.62255e-06 -3.00826 8.03027 -4.95142 0.69762 -44.2513 -9.71482 5.93134 -53.7429 29.3261 -47.6158 -3.56653e-06 -1.93395e-06 -1.38147e-05 6.60285 1.83732 -0.110316 9.77207e-06 1.07545e-05 3.00001 -8.03027 -4.9514 -0.697627 176.085 3.21116 0.364497 180 7.01556e-15 178.961 176.534 5.92085 179.731 -4.3683e-06 2.65562e-06 0.0665853 -18.9297 68.2292 19.7327 8.13649 25.2327 -3.48774 -174.096 4.10305 0.327303 4.54188e-06 -4.6773e-06 -1.11765 -3.29529 -11.4097 0.430444 2.43306e-06 -7.34586e-06 -0.171673 19.3971 68.7411 -20.1677 -8.13649 25.2327 3.48774 
46.795 98.8992 31.5258 -0.248859 1.0695 -0.820564 -0.0185061 -2.74518 -0.0546875 -0.0256163 -1.48804 -0.0955024 -0.0244694 0.157041 -0.0950691 0.223117 22.3559 0.16661 0.382785 -0.416501 0.284146 39.3031 -11.351 -7.36073 51.5172 33.6881 51.7231 3.18055e-15 -6.36111e-15 1.27222e-14 -6.80481 1.01597 2.61035 -1.26522e-05 6.62255e-06 -3.00826 8.03027 -4.95142 0.69762 -44.2556 -9.71309 5.92987 -53.7307 29.3192 -47.616 -3.56653e-06 -1.93395e-06 -1.38147e-05 6.59235 1.82611 -0.108516 9.77207e-06 1.07545e-05 3.00001 -8.03027 -4.9514 -0.697627 176.097 3.21053 0.350947 180 7.01556e-15 178.961 176.543 5.90251 179.73 -4.3683e-06 2.65562e-06 0.0666136 -18.9244 68.2233 19.7267 8.13649 25.2327 -3.48774 -174.087 4.13053 0.322155 4.54188e-06 -4.6773e-06 -1.11765 -3.2951 -11.448 0.429771 2.43306e-06 -7.34586e-06 -0.172275 19.4134 68.7592 -20.1841 -8.13649 25.2327 3.48774 
46.8075 98.8961 31.528 -0.253184 1.07662 -0.828712 -0.0171797 -2.74583 -0.0545441 -0.0221725 -1.48929 -0.094542 -0.0210375 0.155786 -0.0941663 0.193677 22.3302 0.178049 0.407113 -0.391435 0.287928 39.2824 -11.3604 -7.36943 51.519 33.7314 51.748 3.18055e-15 3.18055e-15 6.36111e-15 -6.82952 0.965228 2.6118 -1.26522e-05 6.62255e-06 -3.00826 8.03027 -4.95142 0.69762 -44.2593 -9.71201 5.92893 -53.7191 29.3129 -47.6168 -3.56653e-06 -1.93395e-06 -1.38147e-05 6.5828 1.81554 -0.106825 9.77207e-06 1.07545e-05 3.00001 -8.03027 -4.9514 -0.697627 176.108 3.21047 0.338618 180 7.01556e-15 178.961 176.552 5.88615 179.73 -4.3683e-06 2.65562e-06 0.0666423 -18.9196 68.2181 19.7213 8.13649 25.2327 -3.48774 -174.078 4.15416 0.316949 4.54188e-06 -4.6773e-06 -1.11765 -3.29545 -11.4803 0.429123 2.43306e-06 -7.34586e-06 -0.172771 19.4269 68.7741 -20.1976 -8.13649 25.2327 3.48774 
46.8039 98.8964 31.5336 -0.257082 1.08322 -0.836404 -0.0159837 -2.74652 -0.0544239 -0.019179 -1.49056 -0.0938018 -0.0180533 0.154513 -0.0934764 0.167571 22.3084 0.18856 0.428475 -0.370244 0.291635 39.2643 -11.3683 -7.37675 51.5206 33.7702 51.7704 3.44285e-30 2.06736e-14 -9.54166e-15 -6.85169 0.920606 2.61318 -1.26522e-05 6.62255e-06 -3.00826 8.03027 -4.95142 0.69762 -44.2624 -9.71169 5.92861 -53.7082 29.3073 -47.6185 -3.56653e-06 -1.93395e-06 -1.38147e-05 6.57443 1.80593 -0.105287 9.77207e-06 1.07545e-05 3.00001 -8.03027 -4.9514 -0.697627 176.118 3.21122 0.328153 180 7.01556e-15 178.961 176.559 5.87257 179.729 -4.3683e-06 2.65562e-06 0.0666716 -18.9154 68.2135 19.7166 8.13649 25.2327 -3.48774 -174.07 4.17311 0.311757 4.54188e-06 -4.6773e-06 -1.11766 -3.2964 -11.5051 0.428516 2.43306e-06 -7.34586e-06 -0.173143 19.437 68.7852 -20.2077 -8.13649 25.2327 3.48774 
46.8009 98.8973 31.5293 -0.260447 1.08918 -0.843514 -0.0149495 -2.74724 -0.0543369 -0.0167288 -1.49187 -0.0933312 -0.015609 0.153206 -0.0930468 0.145463 22.2915 0.197933 0.446284 -0.35384 0.295225 39.2492 -11.3743 -7.38236 51.5222 33.8033 51.7895 -3.18055e-15 1.74931e-14 -3.18055e-15 -6.87072 0.883564 2.61448 -1.26522e-05 6.62255e-06 -3.00826 8.03027 -4.95142 0.69762 -44.2647 -9.71223 5.929 -53.6983 29.3022 -47.6212 -3.56653e-06 -1.93395e-06 -1.38147e-05 6.56751 1.7976 -0.103949 9.77207e-06 1.07545e-05 3.00001 -8.03027 -4.9514 -0.697627 176.126 3.21301 0.320195 180 7.01556e-15 178.961 176.564 5.86245 179.728 -4.3683e-06 2.65562e-06 0.0667014 -18.9119 68.2099 19.7127 8.13649 25.2327 -3.48774 -174.064 4.18655 0.306651 4.54188e-06 -4.6773e-06 -1.11766 -3.29802 -11.5212 0.427966 2.43306e-06 -7.34586e-06 -0.173371 19.4431 68.7919 -20.2136 -8.13649 25.2327 3.48774 
46.8106 98.8986 31.5274 -0.263175 1.09438 -0.849919 -0.0141087 -2.74802 -0.0542935 -0.0149147 -1.49322 -0.0931792 -0.0137969 0.151851 -0.0929252 0.128018 22.2804 0.205956 0.459953 -0.343136 0.29866 39.2378 -11.3781 -7.38592 51.5237 33.8296 51.8048 -9.54166e-15 6.36111e-15 3.18055e-15 -6.88601 0.855566 2.61569 -1.26522e-05 6.62255e-06 -3.00826 8.03027 -4.95142 0.69762 -44.2664 -9.71371 5.93016 -53.6894 29.2979 -47.6248 -3.56653e-06 -1.93395e-06 -1.38147e-05 6.56229 1.79084 -0.102855 9.77207e-06 1.07545e-05 3.00001 -8.03027 -4.9514 -0.697627 176.131 3.2161 0.315387 180 7.01556e-15 178.961 176.566 5.85659 179.728 -4.3683e-06 2.65562e-06 0.0667316 -18.9093 68.2072 19.7098 8.13649 25.2327 -3.48774 -174.058 4.19367 0.301704 4.54188e-06 -4.6773e-06 -1.11766 -3.30037 -11.5274 0.427489 2.43306e-06 -7.34586e-06 -0.173437 19.4446 68.7936 -20.2149 -8.13649 25.2327 3.48774 
